<svg xmlns="http://www.w3.org/2000/svg" xmlns:xlink="http://www.w3.org/1999/xlink" width="1000" zoomAndPan="magnify" viewBox="0 0 750 749.999995" height="1000" preserveAspectRatio="xMidYMid meet" version="1.0"><path fill="#1a4789" d="M 750 635.949219 C 750 698.890625 698.980469 749.910156 636.042969 749.910156 L 113.992188 749.910156 C 51.054688 749.910156 0.0273438 698.890625 0.0273438 635.949219 L 0.0273438 113.902344 C 0.0273438 50.960938 51.054688 -0.0625 113.992188 -0.0625 L 636.039062 -0.0625 C 698.980469 -0.0625 750 50.960938 750 113.902344 Z M 750 635.949219 " fill-opacity="1" fill-rule="nonzero"/><path fill="#ffffff" d="M 496.960938 433.195312 L 509.089844 339.164062 L 415.96875 339.164062 L 415.96875 279.125 C 415.96875 251.898438 423.566406 233.34375 462.597656 233.34375 L 512.355469 233.316406 L 512.355469 149.214844 C 503.761719 148.070312 474.230469 145.507812 439.808594 145.507812 C 368.007812 145.507812 318.882812 189.339844 318.882812 269.820312 L 318.882812 339.164062 L 237.679688 339.164062 L 237.679688 433.199219 L 318.882812 433.199219 L 318.882812 674.476562 L 415.96875 674.476562 L 415.96875 433.195312 Z M 496.960938 433.195312 " fill-opacity="1" fill-rule="nonzero"/></svg>